# AST/ASF file generated using VICON BodyLanguage
# -----------------------------------------------
:version 1.10
:name VICON
:units
  mass 1.0
  length 0.45
  angle deg
:documentation
   .ast/.asf automatically generated from VICON data using
   VICON BodyBuilder and BodyLanguage model FoxedUp or BRILLIANT.MOD
:root
   order TX TY TZ RX RY RZ
   axis XYZ
   position 0 0 0  
   orientation 0 0 0 
:bonedata
  begin
     id 1 
     name lhipjoint
     direction 0.54267 -0.795011 0.271047 
     length 2.39899 
     axis 0 0 0  XYZ
  end
  begin
     id 2 
     name lfemur
     direction 0.34202 -0.939693 0  
     length 7.49701  
     axis 0 0 20  XYZ
    dof rx ry rz
    limits (-160.0 20.0)
           (-70.0 70.0)
           (-60.0 70.0)
  end
  begin
     id 3 
     name ltibia
     direction 0.34202 -0.939693 0   
     length 8.1668   
     axis 0 0 20   XYZ
    dof rx
    limits (-10.0 170.0)
  end
  begin
     id 4 
     name lfoot
     direction 0.0736283 -0.202292 0.976554   
     length 2.13544   
     axis -90 7.62852e-016 20   XYZ
    dof rx rz
    limits (-45.0 90.0)
           (-70.0 20.0)
  end
  begin
     id 5 
     name ltoes
     direction 1.53557e-011 -4.22024e-011 1   
     length 1.07411   
     axis -90 7.62852e-016 20   XYZ
    dof rx
    limits (-90.0 20.0)
  end
  begin
     id 6 
     name rhipjoint
     direction -0.538061 -0.797813 0.272002   
     length 2.39057  
     axis 0 0 0  XYZ 
  end
  begin
     id 7 
     name rfemur
     direction -0.34202 -0.939693 0   
     length 7.50152   
     axis 0 0 -20   XYZ
    dof rx ry rz
    limits (-160.0 20.0)
           (-70.0 70.0)
           (-70.0 60.0)
  end
  begin
     id 8 
     name rtibia
     direction -0.34202 -0.939693 0   
     length 8.05793   
     axis 0 0 -20   XYZ
    dof rx
    limits (-10.0 170.0)
 end
 begin
     id 9 
     name rfoot
     direction -0.0765195 -0.210236 0.974652   
     length 2.28698  
     axis -90 -7.62852e-016 -20   XYZ
    dof rx rz
    limits (-45.0 90.0)
           (-20.0 70.0)
  end
  begin
     id 10 
     name rtoes
     direction -1.53542e-011 -4.21847e-011 1   
     length 1.14762   
     axis -90 -7.62852e-016 -20   XYZ
    dof rx
    limits (-90.0 20.0)
  end
  begin
     id 11 
     name lowerback
     direction -0.0217239 0.996592 -0.0795765   
     length 2.08176   
     axis 0 0 0   XYZ
    dof rx ry rz
    limits (-20.0 45.0)
           (-30.0 30.0)
           (-30.0 30.0)
  end
  begin
     id 12 
     name upperback
     direction -0.00563773 0.999651 -0.0258155   
     length 2.08898   
     axis 0 0 0   XYZ
    dof rx ry rz
    limits (-20.0 45.0)
           (-30.0 30.0)
           (-30.0 30.0)
  end
  begin
     id 13 
     name thorax
     direction 0.0032706 0.999923 0.0119599   
     length 2.0968   
     axis 0 0 0   XYZ
    dof rx ry rz
    limits (-20.0 45.0)
           (-30.0 30.0)
           (-30.0 30.0)
  end
  begin
     id 14 
     name lowerneck
     direction -0.0285886 0.99568 0.0883427   
     length 1.81272   
     axis 0 0 0   XYZ
    dof rx ry rz
    limits (-20.0 45.0)
           (-30.0 30.0)
           (-30.0 30.0)
  end
  begin
     id 15 
     name upperneck
     direction 0.0807535 0.97985 -0.18268   
     length 1.82518   
     axis 0 0 0   XYZ
    dof rx ry rz
    limits (-20.0 45.0)
           (-30.0 30.0)
           (-30.0 30.0)
  end
  begin
     id 16
     name head
     direction 0.0236605 0.997053 -0.0729767  
     length 1.84443  
     axis 0 0 0   XYZ
    dof rx ry rz
    limits (-20.0 45.0)
           (-30.0 30.0)
           (-30.0 30.0)
  end
  begin
     id 17 
     name lclavicle
     direction 0.918986 0.39378 -0.0200683  
     length 3.27822  
     axis 0 0 0   XYZ
    dof ry rz
    limits (-20.0 10.0)
           (0.0 20.0)
  end
  begin
     id 18 
     name lhumerus
     direction 1 -4.4897e-011 2.09544e-027   
     length 5.5568   
     axis 180 -30 -90   XYZ
    dof rx ry rz
    limits (-60.0 90.0)
           (-90.0 90.0)
           (-90.0 90.0)
  end
  begin
     id 19
     name lradius
     direction 1 -4.48957e-011 -1.27696e-026   
     length 3.63979   
     axis 180 -30 -90   XYZ
    dof rx
    limits (-10.0 170.0)
  end
  begin
     id 20
     name lwrist
     direction 1 -4.49001e-011 -1.49001e-026   
     length 1.8199   
     axis 9.0955e-015 90 90   XYZ
    dof ry
    limits (-180.0 0.0)
 end
  begin
     id 21 
     name lhand
     direction 1 -4.48709e-011 -2.9758e-026   
     length 0.569419   
     axis 1.90115e-014 90 90   XYZ
    dof rx rz
    limits (-90.0 90.0)
           (-45.0 45.0)
  end
  begin
     id 22 
     name lfingers
     direction 1 -4.49175e-011 -5.96505e-026   
     length 0.45908   
     axis 3.80223e-014 90 90   XYZ
    dof rx
    limits (0.0 90.0)
  end
  begin
     id 23
     name lthumb
     direction 0.707107 -6.34864e-011 0.707107   
     length 0.65915   
     axis -90 45 -3.84942e-014   XYZ
    dof rx rz
    limits (-45.0 45.0)
           (-45.0 45.0)
  end
  begin
     id 24 
     name rclavicle
     direction -0.911913 0.396426 -0.106115   
     length 3.46301  
     axis 0 0 0   XYZ 
    dof ry rz
    limits (-10.0 20.0)
           (-20.0 0.0)
  end
  begin
     id 25 
     name rhumerus
     direction -1 -4.48965e-011 7.78516e-028  
     length 5.34339   
     axis 180 30 90   XYZ
    dof rx ry rz
    limits (-90.0 60.0)
           (-90.0 90.0)
           (-90.0 90.0)
  end
  begin
     id 26 
     name rradius
     direction -1 -4.48948e-011 -5.79823e-027   
     length 3.65101   
     axis 180 30 90   XYZ
    dof rx
    limits (-10.0 170.0)
  end
  begin
     id 27 
     name rwrist
     direction -1 -4.48995e-011 -1.48996e-026   
     length 1.8255   
     axis 9.0955e-015 -90 -90   XYZ
    dof ry
    limits (-180.0 0.0)
  end
  begin
     id 28
     name rhand
     direction -1 -4.48957e-011 -2.97937e-026   
     length 0.694249   
     axis 1.90115e-014 -90 -90   XYZ
    dof rx rz
    limits (-90.0 90.0)
           (-45.0 45.0)
  end
  begin
     id 29
     name rfingers
     direction -1 -4.4898e-011 -5.95943e-026   
     length 0.559721   
     axis 3.80223e-014 -90 -90   XYZ
    dof rx
    limits (0.0 90.0)
  end
  begin
     id 30
     name rthumb
     direction -0.707107 -6.34969e-011 0.707107   
     length 0.803651   
     axis -90 -45 3.84942e-014   XYZ
    dof rx rz
    limits (-45.0 45.0)
           (-45.0 45.0)
  end
:hierarchy
  begin
    root lhipjoint rhipjoint lowerback
    lhipjoint lfemur
    lfemur ltibia
    ltibia lfoot
    lfoot ltoes
    rhipjoint rfemur
    rfemur rtibia
    rtibia rfoot
    rfoot rtoes
    lowerback upperback
    upperback thorax
    thorax lowerneck lclavicle rclavicle
    lowerneck upperneck
    upperneck head
    lclavicle lhumerus
    lhumerus lradius
    lradius lwrist
    lwrist lhand lthumb
    lhand lfingers
    rclavicle rhumerus
    rhumerus rradius
    rradius rwrist
    rwrist rhand rthumb
    rhand rfingers
  end

#!OML:ASF H:\Terrain\Walking\May29\JustinRory\rory.ASF
:FULLY-SPECIFIED
:DEGREES
1
root 6.72295 18.8584 8.1234 -174.055 -3.38312 -179.528
lowerback -3.59489 4.72325 1.68549
upperback -0.366172 6.22285 -0.347449
thorax 1.84752 3.11457 -0.964095
lowerneck 3.69871 17.0347 11.0768
upperneck 5.87043 23.7473 -15.8726
head 4.40638 11.629 -5.26483
rclavicle -3.03457e-014 -3.97569e-015
rhumerus -12.8272 -4.49911 -38.9327
rradius 114.344
rwrist 6.95723
rhand -17.7445 41.6699
rfingers 7.12502
rthumb 8.51689 11.8616
lclavicle -3.03457e-014 -3.97569e-015
lhumerus 6.10235 -10.1659 50.625
lradius 113.646
lwrist -11.9091
lhand -27.5726 17.1431
lfingers 7.12502
lthumb -0.973118 47.1206
rfemur 0.266131 10.0497 18.2906
rtibia 5.81587
rfoot -5.54033 -14.2225
rtoes 8.44547
lfemur -1.75789 -7.16016 -15.7337
ltibia 9.95717
lfoot -12.2292 7.91653
ltoes -12.0816
2
root 6.72051 18.854 8.11838 -174.04 -3.19952 -179.488
lowerback -3.69134 4.71054 1.69317
upperback -0.362559 6.20325 -0.341581
thorax 1.90458 3.10483 -0.954629
lowerneck 3.60977 16.7349 10.9098
upperneck 5.83547 23.3107 -15.7152
head 4.31114 11.4135 -5.24743
rclavicle 3.46569e-014 2.08724e-015
rhumerus -12.6994 -4.29988 -38.9961
rradius 114.179
rwrist 7.03596
rhand -17.9696 41.906
rfingers 7.12502
rthumb 8.29971 12.089
lclavicle 3.46569e-014 2.08724e-015
lhumerus 6.13033 -10.0897 50.5875
lradius 113.497
lwrist -11.7458
lhand -27.5089 17.1963
lfingers 7.12502
lthumb -0.91159 47.1741
rfemur -0.617223 10.2403 18.3366
rtibia 7.46449
rfoot -6.43606 -14.3064
rtoes 9.16273
lfemur -1.20615 -6.9739 -15.7555
ltibia 9.01469
lfoot -11.9303 7.99878
ltoes -12.315
3
root 6.71966 18.8442 8.11349 -174.098 -2.92314 -179.729
lowerback -3.76406 4.6906 1.33711
upperback -0.279306 6.19245 -0.37688
thorax 1.99664 3.09824 -0.785797
lowerneck 3.09623 16.4751 10.6978
upperneck 6.05422 22.9282 -15.4413
head 4.3506 11.1978 -5.13578
rclavicle -7.54139e-015 -1.98785e-016
rhumerus -12.5128 -4.11975 -38.8886
rradius 113.977
rwrist 7.0897
rhand -18.1718 42.3109
rfingers 7.12502
rthumb 8.10452 12.4863
lclavicle -7.54139e-015 -1.98785e-016
lhumerus 6.24044 -9.88438 50.5756
lradius 113.37
lwrist -11.5416
lhand -26.8773 16.739
lfingers 7.12502
lthumb -0.301627 46.7185
rfemur -0.987481 10.4914 18.0525
rtibia 8.32395
rfoot -6.98978 -14.3419
rtoes 9.62867
lfemur -0.774231 -6.73185 -16.1171
ltibia 8.53958
lfoot -11.8439 8.01723
ltoes -12.7424
4
root 6.71919 18.8408 8.11017 -174.199 -2.73064 -179.944
lowerback -3.68437 4.64796 1.06818
upperback -0.236737 6.1505 -0.441176
thorax 1.97364 3.07612 -0.711598
lowerneck 2.3744 16.1354 10.6172
upperneck 6.66344 22.4592 -15.0723
head 4.53661 10.9212 -4.99149
rclavicle 2.91965e-014 7.95139e-016
rhumerus -12.2785 -3.94933 -38.9267
rradius 113.677
rwrist 7.07503
rhand -18.1647 42.4682
rfingers 7.12502
rthumb 8.11134 12.6439
lclavicle 2.91965e-014 7.95139e-016
lhumerus 6.34163 -9.77677 50.5134
lradius 113.259
lwrist -11.3974
lhand -26.4045 16.4655
lfingers 7.12502
lthumb 0.155099 46.4451
rfemur -1.20402 10.663 17.7874
rtibia 8.93395
rfoot -7.28978 -14.3566
rtoes 9.91007
lfemur -0.42219 -6.57107 -16.4095
ltibia 8.2131
lfoot -11.7342 8.02953
ltoes -12.648
5
root 6.71487 18.8401 8.10583 -174.259 -2.68529 -180.048
lowerback -3.6741 4.5382 0.952295
upperback -0.17412 6.01036 -0.447021
thorax 2.01778 3.00605 -0.659967
lowerneck 1.16868 15.7122 10.5013
upperneck 7.99976 21.8942 -14.5102
head 4.98853 10.5519 -4.73753
rclavicle 2.84076e-014 8.94531e-016
rhumerus -11.9257 -3.66956 -39.0209
rradius 113.409
rwrist 6.70233
rhand -18.5074 42.9593
rfingers 7.12502
rthumb 7.78066 13.1225
lclavicle 2.84076e-014 8.94531e-016
lhumerus 6.42835 -9.58576 50.5015
lradius 113.048
lwrist -11.4289
lhand -26.6986 16.0828
lfingers 7.12502
lthumb -0.128998 46.0625
rfemur -1.33358 10.6988 17.6536
rtibia 9.32339
rfoot -7.51351 -14.3722
rtoes 9.76783
lfemur -0.310183 -6.54091 -16.5444
ltibia 8.16396
lfoot -11.7126 8.03074
ltoes -12.6957
6
root 6.70959 18.8486 8.10025 -174.326 -2.62197 -180.204
lowerback -3.68974 4.39642 0.659703
upperback -0.0737998 5.83353 -0.373479
thorax 2.089 2.91571 -0.428976
lowerneck -0.0944915 15.2248 9.94249
upperneck 9.01577 21.1939 -13.7958
head 5.27821 10.1256 -4.41092
rclavicle -3.59179e-014 -2.88238e-015
rhumerus -11.4245 -3.40572 -38.9147
rradius 113.134
rwrist 6.61129
rhand -18.9559 43.1813
rfingers 7.12502
rthumb 7.34773 13.3289
lclavicle -3.59179e-014 -2.88238e-015
lhumerus 6.42368 -9.25643 50.5637
lradius 112.825
lwrist -11.5884
lhand -26.5252 15.76
lfingers 7.12502
lthumb 0.0385223 45.7397
rfemur -1.31067 10.7482 17.4694
rtibia 9.43764
rfoot -7.44619 -14.385
rtoes 9.02577
lfemur -0.439509 -6.49839 -16.7381
ltibia 8.56436
lfoot -11.9082 7.96277
ltoes -11.7533
7
root 6.70398 18.8505 8.09833 -174.397 -2.68858 -180.308
lowerback -3.69328 4.19876 0.407505
upperback -0.000716748 5.57971 -0.273985
thorax 2.12824 2.78661 -0.200281
lowerneck -0.518657 14.6326 9.11864
upperneck 8.74237 20.3077 -13.2782
head 5.01547 9.68723 -4.23176
rclavicle -1.99406e-014 -1.98785e-016
rhumerus -10.8408 -3.21913 -38.8252
rradius 112.793
rwrist 6.80689
rhand -18.6975 42.674
rfingers 7.12502
rthumb 7.59714 12.8304
lclavicle -1.99406e-014 -1.98785e-016
lhumerus 6.24612 -8.98514 50.5692
lradius 112.69
lwrist -11.5884
lhand -26.1131 15.8246
lfingers 7.12502
lthumb 0.436501 45.8039
rfemur -1.13579 10.6743 17.3625
rtibia 9.27718
rfoot -7.1794 -14.368
rtoes 8.66549
lfemur -0.791334 -6.57903 -16.8479
ltibia 9.35303
lfoot -12.2882 7.82018
ltoes -10.554
8
root 6.69882 18.8383 8.0975 -174.418 -2.83055 -180.094
lowerback -3.85351 4.0051 0.633521
upperback 0.0153767 5.30946 -0.229416
thorax 2.24819 2.6536 -0.281262
lowerneck -0.733356 13.9092 8.50562
upperneck 8.49254 19.2474 -12.6449
head 4.72821 9.18571 -4.07166
rclavicle 7.09413e-015 1.98785e-016
rhumerus -10.3643 -2.90362 -38.9873
rradius 112.372
rwrist 6.60778
rhand -18.1558 42.0707
rfingers 7.12502
rthumb 8.12001 12.2467
lclavicle 7.09413e-015 1.98785e-016
lhumerus 6.01619 -8.8965 50.314
lradius 112.642
lwrist -11.3566
lhand -26.2856 16.25
lfingers 7.12502
lthumb 0.269938 46.2296
rfemur -1.01724 10.5547 17.5993
rtibia 9.08854
rfoot -7.18666 -14.4062
rtoes 8.4903
lfemur -1.23106 -6.69908 -16.5813
ltibia 10.1925
lfoot -12.6428 7.70138
ltoes -10.6086
9
root 6.69811 18.8273 8.09535 -174.417 -2.7633 -179.782
lowerback -4.00347 3.88801 0.894611
upperback -0.0275946 5.13767 -0.181866
thorax 2.30437 2.56965 -0.377523
lowerneck -1.72632 13.1381 7.97523
upperneck 9.32234 18.1554 -11.7302
head 4.89145 8.61039 -3.75011
rclavicle 5.3939e-014 -1.09332e-015
rhumerus -9.91054 -2.45788 -39.1282
rradius 111.853
rwrist 6.2884
rhand -17.9615 41.554
rfingers 7.12502
rthumb 8.30747 11.7373
lclavicle 5.3939e-014 -1.09332e-015
lhumerus 5.80489 -8.76779 50.0124
lradius 112.553
lwrist -11.3186
lhand -26.15 16.4863
lfingers 7.12502
lthumb 0.400894 46.4656
rfemur -0.9435 10.6514 17.9058
rtibia 8.87837
rfoot -7.19165 -14.4477
rtoes 8.21117
lfemur -1.68259 -6.51204 -16.219
ltibia 11.0629
lfoot -13.0349 7.45361
ltoes -11.2245
10
root 6.70054 18.8123 8.09735 -174.529 -2.60904 -179.555
lowerback -3.86469 3.77085 1.0109
upperback -0.0607185 4.97563 -0.109088
thorax 2.19354 2.48939 -0.389044
lowerneck -2.69423 12.3285 7.55861
upperneck 10.0629 17.0379 -11.2275
head 5.0852 8.01117 -3.57187
rclavicle -1.65116e-014 -3.77691e-015
rhumerus -9.34493 -2.06616 -39.2443
rradius 111.323
rwrist 6.17364
rhand -17.9162 41.8415
rfingers 7.12502
rthumb 8.35121 12.0266
lclavicle -1.65116e-014 -3.77691e-015
lhumerus 5.6371 -8.45181 49.8487
lradius 112.41
lwrist -11.557
lhand -25.5898 16.0879
lfingers 7.12502
lthumb 0.941931 46.0655
rfemur -0.595851 10.8305 18.1441
rtibia 8.37419
rfoot -6.90758 -14.4384
rtoes 8.3595
lfemur -2.09448 -6.30528 -15.9756
ltibia 12.1387
lfoot -13.5864 7.18295
ltoes -12.7741
11
root 6.70688 18.805 8.10182 -174.763 -2.36711 -179.319
lowerback -3.55655 3.65914 1.08536
upperback -0.0289751 4.82576 -0.00240173
thorax 2.04825 2.41536 -0.350694
lowerneck -3.34307 11.4198 7.26339
upperneck 10.4333 15.7942 -11.0167
head 5.14527 7.36654 -3.53956
rclavicle 3.00289e-014 4.37326e-015
rhumerus -8.725 -1.75688 -39.3812
rradius 110.828
rwrist 6.13796
rhand -17.9744 42.6639
rfingers 7.12502
rthumb 8.29501 12.8468
lclavicle 3.00289e-014 4.37326e-015
lhumerus 5.52205 -7.98224 49.7548
lradius 112.482
lwrist -11.4788
lhand -23.4957 16.24
lfingers 7.12502
lthumb 2.96442 46.1992
rfemur -0.27716 11.1015 18.4504
rtibia 8.12517
rfoot -6.7478 -14.4821
rtoes 8.09291
lfemur -2.30457 -6.06783 -15.7378
ltibia 13.0249
lfoot -13.9514 7.10473
ltoes -13.6715
12
root 6.70959 18.8127 8.10365 -174.875 -2.20592 -179.13
lowerback -3.36949 3.54835 0.976841
upperback 0.0256534 4.68154 0.158427
thorax 1.97518 2.3419 -0.145525
lowerneck -4.40547 10.4576 6.86407
upperneck 11.18 14.4813 -10.603
head 5.36863 6.67099 -3.40813
rclavicle -3.84897e-014 4.27387e-015
rhumerus -8.00206 -1.60753 -39.2845
rradius 110.261
rwrist 6.16846
rhand -18.0927 42.5284
rfingers 7.12502
rthumb 8.1809 12.7067
lclavicle -3.84897e-014 4.27387e-015
lhumerus 5.45598 -7.56476 49.7367
lradius 112.528
lwrist -11.1812
lhand -21.4432 17.2785
lfingers 7.12502
lthumb 4.94643 47.2008
rfemur -0.484507 11.2825 18.675
rtibia 8.72441
rfoot -7.13937 -14.5213
rtoes 8.21646
lfemur -2.41991 -5.97332 -15.5314
ltibia 13.3733
lfoot -14.0003 7.25425
ltoes -12.5721
13
root 6.70658 18.8098 8.10712 -174.899 -2.19412 -179.215
lowerback -3.17693 3.40128 0.721701
upperback 0.00423639 4.49793 0.173625
thorax 1.82238 2.24814 -0.0123475
lowerneck -5.49078 9.51783 6.30908
upperneck 12.0135 13.1945 -9.97921
head 5.61293 5.99529 -3.18912
rclavicle 2.44195e-014 2.38542e-015
rhumerus -7.27558 -1.39998 -39.2827
rradius 109.584
rwrist 6.08182
rhand -18.8131 42.4862
rfingers 7.12502
rthumb 7.48558 12.6386
lclavicle 2.44195e-014 2.38542e-015
lhumerus 5.30502 -7.496 49.594
lradius 112.147
lwrist -11.2013
lhand -22.738 17.8601
lfingers 7.12502
lthumb 3.69612 47.8078
rfemur -0.909319 11.2864 18.5565
rtibia 9.68455
rfoot -7.86294 -14.4788
rtoes 9.59755
lfemur -2.45538 -5.82875 -15.6338
ltibia 13.4615
lfoot -13.9387 7.17199
ltoes -12.496
14
root 6.70512 18.7955 8.1126 -175.048 -2.09652 -179.546
lowerback -2.94312 3.2242 0.404412
upperback 0.0599734 4.2803 0.0281942
thorax 1.735 2.13882 -0.00815078
lowerneck -6.52593 8.61243 5.62509
upperneck 12.8032 11.9573 -9.26852
head 5.84353 5.35177 -2.92551
rclavicle -1.05666e-014 5.96354e-016
rhumerus -6.56532 -1.07155 -39.5334
rradius 109.039
rwrist 5.85886
rhand -19.375 43.0391
rfingers 7.12502
rthumb 6.94315 13.173
lclavicle -1.05666e-014 5.96354e-016
lhumerus 5.24424 -7.35613 49.2637
lradius 111.705
lwrist -11.2309
lhand -24.8275 17.9199
lfingers 7.12502
lthumb 1.67822 47.893
rfemur -1.34504 11.3574 18.1788
rtibia 10.8124
rfoot -8.57307 -14.4477
rtoes 10.775
lfemur -2.25646 -5.45704 -16.0443
ltibia 13.4863
lfoot -13.9218 6.89326
ltoes -14.1268
